<svg xmlns="http://www.w3.org/2000/svg" width="110" height="110" viewBox="0 0 110 110"><defs><linearGradient id="a" x1="100%" x2="0%" y1="0%" y2="100%"><stop offset="0%" stop-color="#220067"/><stop offset="100%" stop-color="#3870B0"/></linearGradient></defs><g fill="none" fill-rule="evenodd"><path fill="url(#a)" fill-rule="nonzero" d="M106.044346,22.4847416 C114.748547,38.8155278 108.061173,63.8634229 95.9602121,81.7390133 C83.8592509,99.7249468 66.3447017,110.428232 49.573194,109.98686 C32.6955376,109.545487 16.5609226,97.9594564 7.64442489,81.9596996 C-1.16592408,65.9599428 -2.8643046,45.6568031 5.20300288,29.6570463 C13.2703104,13.7676327 30.9971571,2.18160189 52.014616,0.305768334 C73.032075,-1.68040837 97.2339975,6.04361215 106.044346,22.4847416 Z" transform="matrix(-1 0 0 1 110 0)"/><path fill="#FFF" fill-rule="nonzero" d="M51.5402642,26 L78.1916917,29.8096545 L81.9986538,56.4637743 L57.2507074,81.2117207 C56.1993509,82.2627598 54.4951018,82.2627598 53.4437453,81.2117207 L26.7896255,54.5576009 C25.7385864,53.5062443 25.7385864,51.8019953 26.7896255,50.7506387 L51.5402642,26 Z M59.1541885,48.8471576 C60.514766,50.2072543 62.4975944,50.7381759 64.3557614,50.2399295 C66.2139284,49.7416831 67.6651342,48.2899642 68.1627236,46.4316211 C68.660313,44.5732781 68.1286904,42.5906376 66.7681129,41.230541 C64.6648422,39.1280138 61.2553695,39.1286165 59.1528424,41.2318871 C57.0503152,43.3351578 57.0509179,46.7446305 59.1541885,48.8471576 L59.1541885,48.8471576 Z"/></g></svg>